<svg width="556" height="261" viewBox="0 0 556 261" fill="none" xmlns="http://www.w3.org/2000/svg">
<path d="M150.398 107.364H183.328V113.028H156.14V130.997H183.093V136.622H156.14V159.161H183.093V164.825H150.398V107.364ZM202.85 107.364H208.631V159.278H230.701V164.825H202.85V107.364ZM302.918 118.028L298.387 121.505C295.887 118.25 292.879 115.789 289.364 114.122C285.874 112.429 282.033 111.583 277.84 111.583C273.257 111.583 269.012 112.69 265.106 114.903C261.2 117.091 258.166 120.047 256.004 123.771C253.869 127.468 252.801 131.635 252.801 136.271C252.801 143.276 255.197 149.122 259.989 153.81C264.806 158.497 270.874 160.841 278.192 160.841C286.239 160.841 292.971 157.69 298.387 151.388L302.918 154.825C300.054 158.471 296.473 161.297 292.176 163.302C287.905 165.281 283.127 166.271 277.84 166.271C267.788 166.271 259.859 162.924 254.051 156.231C249.181 150.58 246.747 143.757 246.747 135.763C246.747 127.351 249.689 120.281 255.575 114.552C261.486 108.797 268.882 105.919 277.762 105.919C283.127 105.919 287.971 106.987 292.293 109.122C296.616 111.231 300.158 114.2 302.918 118.028ZM351.464 105.919C360.162 105.919 367.44 108.823 373.3 114.63C379.159 120.437 382.089 127.586 382.089 136.075C382.089 144.487 379.159 151.622 373.3 157.481C367.466 163.341 360.344 166.271 351.932 166.271C343.417 166.271 336.229 163.354 330.37 157.521C324.511 151.687 321.581 144.63 321.581 136.349C321.581 130.828 322.909 125.711 325.565 120.997C328.248 116.284 331.893 112.599 336.503 109.942C341.112 107.26 346.099 105.919 351.464 105.919ZM351.737 111.544C347.492 111.544 343.469 112.651 339.667 114.864C335.865 117.078 332.896 120.06 330.761 123.81C328.625 127.56 327.557 131.739 327.557 136.349C327.557 143.172 329.914 148.94 334.628 153.653C339.367 158.341 345.071 160.685 351.737 160.685C356.19 160.685 360.305 159.604 364.081 157.442C367.883 155.281 370.839 152.325 372.948 148.575C375.084 144.825 376.151 140.659 376.151 136.075C376.151 131.518 375.084 127.403 372.948 123.731C370.839 120.034 367.857 117.078 364.003 114.864C360.149 112.651 356.06 111.544 351.737 111.544ZM400.595 164.825L408.759 107.364H409.697L433.056 154.513L456.181 107.364H457.118L465.361 164.825H459.697L454.072 123.731L433.759 164.825H432.314L411.728 123.419L406.142 164.825H400.595ZM486.367 107.364H519.297V113.028H492.109V130.997H519.062V136.622H492.109V159.161H519.062V164.825H486.367V107.364ZM546.397 105.919V150.45H540.732V105.919H546.397ZM543.623 156.231C544.951 156.231 546.084 156.7 547.022 157.638C547.959 158.575 548.428 159.721 548.428 161.075C548.428 162.403 547.959 163.549 547.022 164.513C546.084 165.45 544.951 165.919 543.623 165.919C542.295 165.919 541.162 165.45 540.225 164.513C539.287 163.549 538.818 162.403 538.818 161.075C538.818 159.721 539.287 158.575 540.225 157.638C541.162 156.7 542.295 156.231 543.623 156.231Z" fill="white"/>
<path d="M34.8042 185.75L130.5 20L226.196 185.75H34.8042Z" stroke="url(#paint0_linear)" stroke-width="20"/>
<path d="M61.17 107.364H67.0684L78.7481 148.771L95.2325 107.364H96.4044L112.693 148.771L124.607 107.364H130.467L113.982 164.825H112.889L95.8575 121.349L78.4747 164.825H77.3809L61.17 107.364Z" fill="white"/>
<path d="M375.922 85V73H377.961V85H375.922ZM375.922 70.0469V68.1953H377.961V70.0469H375.922ZM381.699 85V73H383.141L383.457 73.9141C384.77 73.0625 386.066 72.6367 387.348 72.6367C388.676 72.6367 389.75 72.9531 390.57 73.5859C391.398 74.2188 391.812 75.1836 391.812 76.4805V85H389.762V76.4805C389.762 75.1523 388.957 74.4883 387.348 74.4883C386.098 74.4883 384.879 74.9023 383.691 75.7305V85H381.699ZM399.453 69.7891V68.1953H411.699V69.7891H406.66V85H404.504V69.7891H399.453ZM413.41 85V73H414.852L415.145 73.8438C416.168 73.0625 417.078 72.668 417.875 72.6602C418.742 72.6602 419.543 72.8516 420.277 73.2344L419.492 74.8516C418.805 74.6094 418.172 74.4883 417.594 74.4883C416.797 74.4883 416.066 74.7852 415.402 75.3789V85H413.41ZM423.5 85V73H425.539V85H423.5ZM423.5 70.0469V68.1953H425.539V70.0469H423.5ZM428.902 81.2031C428.902 80.1328 429.293 79.2383 430.074 78.5195C430.855 77.8008 431.953 77.4414 433.367 77.4414H436.555V76.5273C436.555 75.793 436.41 75.2695 436.121 74.957C435.832 74.6445 435.297 74.4883 434.516 74.4883C433.938 74.4883 433.059 74.5508 431.879 74.6758L430.262 74.875V73C431.129 72.9375 431.77 72.8828 432.184 72.8359C433.59 72.7109 434.637 72.6445 435.324 72.6367C436.457 72.6367 437.289 72.957 437.82 73.5977C438.352 74.2383 438.617 74.9766 438.617 75.8125V85H437.105L436.766 83.8281H436.695C435.305 84.7734 433.969 85.2422 432.688 85.2344C431.469 85.2344 430.531 84.8242 429.875 84.0039C429.227 83.1758 428.902 82.2422 428.902 81.2031ZM430.988 81.2031C430.988 81.8281 431.152 82.3906 431.48 82.8906C431.809 83.3828 432.348 83.6289 433.098 83.6289C433.629 83.6289 434.223 83.5156 434.879 83.2891C435.535 83.0547 436.086 82.7852 436.531 82.4805H436.555V79.0469H433.367C431.781 79.0469 430.988 79.7656 430.988 81.2031ZM442.168 85V73H443.609L443.926 73.9141C445.238 73.0625 446.535 72.6367 447.816 72.6367C449.145 72.6367 450.219 72.9531 451.039 73.5859C451.867 74.2188 452.281 75.1836 452.281 76.4805V85H450.23V76.4805C450.23 75.1523 449.426 74.4883 447.816 74.4883C446.566 74.4883 445.348 74.9023 444.16 75.7305V85H442.168ZM455.48 79.0469C455.48 77.9453 455.656 76.9219 456.008 75.9766C456.359 75.0312 456.93 74.2383 457.719 73.5977C458.516 72.957 459.469 72.6367 460.578 72.6367C461.555 72.6367 462.762 72.9883 464.199 73.6914L464.527 73H465.828V86.6758C465.828 88.0352 465.43 89.0938 464.633 89.8516C463.82 90.6172 462.625 91 461.047 91C459.352 91 457.633 90.5352 455.891 89.6055L456.922 88.0469C458.328 88.7969 459.703 89.1719 461.047 89.1719C462.891 89.1719 463.812 88.3398 463.812 86.6758V84.543C462.805 85.0898 461.836 85.3633 460.906 85.3633C459.18 85.3633 457.844 84.7539 456.898 83.5352C455.953 82.3164 455.48 80.8203 455.48 79.0469ZM457.473 78.9062C457.473 79.5156 457.531 80.082 457.648 80.6055C457.773 81.1211 457.969 81.6211 458.234 82.1055C458.5 82.582 458.883 82.957 459.383 83.2305C459.891 83.4961 460.496 83.6289 461.199 83.6289C462.223 83.6289 463.094 83.4297 463.812 83.0312V75.0391C462.695 74.5234 461.711 74.2695 460.859 74.2773C459.836 74.2773 459.016 74.6836 458.398 75.4961C457.781 76.3008 457.473 77.4375 457.473 78.9062ZM469.273 85V67H471.312V85H469.273ZM474.676 78.9531C474.676 77.0312 475.188 75.5 476.211 74.3594C477.234 73.2109 478.586 72.6367 480.266 72.6367C483.609 72.6367 485.281 74.9961 485.281 79.7148H476.668C476.746 80.707 477.109 81.5938 477.758 82.375C478.406 83.1484 479.395 83.5352 480.723 83.5352C482.262 83.5352 483.582 83.2812 484.684 82.7734V84.6602C483.48 85.1211 482.246 85.3555 480.98 85.3633C479.879 85.3633 478.914 85.1914 478.086 84.8477C477.266 84.5039 476.609 84.0312 476.117 83.4297C475.633 82.8281 475.27 82.1523 475.027 81.4023C474.793 80.6523 474.676 79.8359 474.676 78.9531ZM476.738 78.1328H483.219C483.109 77.0625 482.812 76.1836 482.328 75.4961C481.844 74.8086 481.141 74.4648 480.219 74.4648C479.305 74.4648 478.527 74.8008 477.887 75.4727C477.246 76.1445 476.863 77.0312 476.738 78.1328ZM493.332 74.8516V73H495.371V69.5195H497.41V73H500.387V74.8516H497.41V81.4727C497.41 82.0664 497.5 82.4961 497.68 82.7617C497.867 83.0195 498.273 83.1484 498.898 83.1484H500.141V85H497.984C497.203 85 496.57 84.793 496.086 84.3789C495.609 83.9648 495.371 83.4023 495.371 82.6914V74.8516H493.332ZM502.754 78.9531C502.754 77.0312 503.266 75.5 504.289 74.3594C505.312 73.2109 506.664 72.6367 508.344 72.6367C511.688 72.6367 513.359 74.9961 513.359 79.7148H504.746C504.824 80.707 505.188 81.5938 505.836 82.375C506.484 83.1484 507.473 83.5352 508.801 83.5352C510.34 83.5352 511.66 83.2812 512.762 82.7734V84.6602C511.559 85.1211 510.324 85.3555 509.059 85.3633C507.957 85.3633 506.992 85.1914 506.164 84.8477C505.344 84.5039 504.688 84.0312 504.195 83.4297C503.711 82.8281 503.348 82.1523 503.105 81.4023C502.871 80.6523 502.754 79.8359 502.754 78.9531ZM504.816 78.1328H511.297C511.188 77.0625 510.891 76.1836 510.406 75.4961C509.922 74.8086 509.219 74.4648 508.297 74.4648C507.383 74.4648 506.605 74.8008 505.965 75.4727C505.324 76.1445 504.941 77.0312 504.816 78.1328ZM515.879 81.2031C515.879 80.1328 516.27 79.2383 517.051 78.5195C517.832 77.8008 518.93 77.4414 520.344 77.4414H523.531V76.5273C523.531 75.793 523.387 75.2695 523.098 74.957C522.809 74.6445 522.273 74.4883 521.492 74.4883C520.914 74.4883 520.035 74.5508 518.855 74.6758L517.238 74.875V73C518.105 72.9375 518.746 72.8828 519.16 72.8359C520.566 72.7109 521.613 72.6445 522.301 72.6367C523.434 72.6367 524.266 72.957 524.797 73.5977C525.328 74.2383 525.594 74.9766 525.594 75.8125V85H524.082L523.742 83.8281H523.672C522.281 84.7734 520.945 85.2422 519.664 85.2344C518.445 85.2344 517.508 84.8242 516.852 84.0039C516.203 83.1758 515.879 82.2422 515.879 81.2031ZM517.965 81.2031C517.965 81.8281 518.129 82.3906 518.457 82.8906C518.785 83.3828 519.324 83.6289 520.074 83.6289C520.605 83.6289 521.199 83.5156 521.855 83.2891C522.512 83.0547 523.062 82.7852 523.508 82.4805H523.531V79.0469H520.344C518.758 79.0469 517.965 79.7656 517.965 81.2031ZM529.145 85V73H530.586L530.832 73.6914C531.73 72.9883 532.699 72.6367 533.738 72.6367C534.348 72.6367 534.957 72.7461 535.566 72.9648C536.184 73.1836 536.668 73.4922 537.02 73.8906C537.949 73.0625 538.996 72.6445 540.16 72.6367C541.105 72.6367 541.977 72.875 542.773 73.3516C543.578 73.8203 543.98 74.4648 543.98 75.2852V85H541.941V76.2344C541.941 75.0625 541.246 74.4805 539.855 74.4883C538.988 74.4883 538.227 74.7539 537.57 75.2852V85H535.531V76.2344C535.531 75.0625 534.836 74.4805 533.445 74.4883C532.547 74.4883 531.777 74.7617 531.137 75.3086V85H529.145Z" fill="white"/>
<defs>
<linearGradient id="paint0_linear" x1="162.103" y1="109.248" x2="16.66" y2="191.931" gradientUnits="userSpaceOnUse">
<stop stop-color="#3D4F8E"/>
<stop offset="1" stop-color="#3D4F8E" stop-opacity="0"/>
</linearGradient>
</defs>
</svg>
