<svg width="21" height="20" viewBox="0 0 21 20" fill="none" xmlns="http://www.w3.org/2000/svg">
<path d="M20.8139 5.88007C20.7671 4.81739 20.5952 4.08681 20.3491 3.45375C20.0951 2.78177 19.7044 2.18015 19.1925 1.68002C18.6924 1.17211 18.0868 0.777437 17.4226 0.527448C16.7859 0.281275 16.0591 0.109427 14.9964 0.0625734C13.9258 0.0117516 13.5859 0 10.8706 0C8.15517 0 7.81529 0.0117516 6.74864 0.0586054C5.68596 0.105459 4.95537 0.27746 4.32247 0.52348C3.65033 0.777437 3.04871 1.16814 2.54858 1.68002C2.04067 2.18015 1.64615 2.78574 1.39601 3.44993C1.14984 4.08681 0.977988 4.81342 0.931134 5.8761C0.880312 6.94672 0.868561 7.2866 0.868561 10.002C0.868561 12.7174 0.880312 13.0572 0.927166 14.1239C0.97402 15.1866 1.14602 15.9172 1.39219 16.5502C1.64615 17.2222 2.04067 17.8238 2.54858 18.3239C3.04871 18.8319 3.6543 19.2265 4.3185 19.4765C4.95537 19.7227 5.68199 19.8945 6.74482 19.9414C7.81132 19.9884 8.15135 20 10.8667 20C13.5821 20 13.922 19.9884 14.9887 19.9414C16.0513 19.8945 16.7819 19.7227 17.4148 19.4765C18.7589 18.9569 19.8216 17.8942 20.3413 16.5502C20.5873 15.9133 20.7593 15.1866 20.8062 14.1239C20.853 13.0572 20.8648 12.7174 20.8648 10.002C20.8648 7.2866 20.8608 6.94672 20.8139 5.88007ZM19.0129 14.0458C18.9699 15.0225 18.8058 15.55 18.669 15.9016C18.333 16.7729 17.6415 17.4644 16.7702 17.8005C16.4185 17.9372 15.8873 18.1013 14.9143 18.1442C13.8594 18.1912 13.5431 18.2028 10.8745 18.2028C8.20599 18.2028 7.88564 18.1912 6.83456 18.1442C5.85781 18.1013 5.33036 17.9372 4.97872 17.8005C4.54514 17.6402 4.15046 17.3863 3.83012 17.0542C3.49802 16.7299 3.24406 16.3391 3.08382 15.9056C2.94707 15.5539 2.783 15.0225 2.74012 14.0497C2.69311 12.9948 2.68151 12.6783 2.68151 10.0098C2.68151 7.34124 2.69311 7.02089 2.74012 5.96996C2.783 4.99321 2.94707 4.46576 3.08382 4.11413C3.24406 3.68039 3.49802 3.28587 3.83409 2.96537C4.15825 2.63327 4.54895 2.37932 4.98269 2.21922C5.33432 2.08247 5.86574 1.91841 6.83853 1.87537C7.89343 1.82852 8.20996 1.81677 10.8783 1.81677C13.5508 1.81677 13.8672 1.82852 14.9183 1.87537C15.8951 1.91841 16.4225 2.08247 16.7741 2.21922C17.2077 2.37932 17.6024 2.63327 17.9227 2.96537C18.2548 3.28968 18.5088 3.68039 18.669 4.11413C18.8058 4.46576 18.9699 4.99702 19.0129 5.96996C19.0597 7.02486 19.0715 7.34124 19.0715 10.0098C19.0715 12.6783 19.0597 12.9909 19.0129 14.0458Z" fill="#95A5DD"/>
<path d="M10.8705 4.86426C8.03412 4.86426 5.73279 7.16543 5.73279 10.002C5.73279 12.8386 8.03412 15.1397 10.8705 15.1397C13.7071 15.1397 16.0083 12.8386 16.0083 10.002C16.0083 7.16543 13.7071 4.86426 10.8705 4.86426ZM10.8705 13.3347C9.03041 13.3347 7.5378 11.8423 7.5378 10.002C7.5378 8.16173 9.03041 6.66927 10.8705 6.66927C12.7108 6.66927 14.2032 8.16173 14.2032 10.002C14.2032 11.8423 12.7108 13.3347 10.8705 13.3347Z" fill="#95A5DD"/>
<path d="M17.411 4.6611C17.411 5.32346 16.8739 5.86053 16.2114 5.86053C15.549 5.86053 15.012 5.32346 15.012 4.6611C15.012 3.99858 15.549 3.46167 16.2114 3.46167C16.8739 3.46167 17.411 3.99858 17.411 4.6611Z" fill="#95A5DD"/>
</svg>
