<svg width="574" height="393" viewBox="0 0 574 393" fill="none" xmlns="http://www.w3.org/2000/svg">
<path d="M173.989 280.75L319.914 28L465.84 280.75H173.989Z" stroke="url(#paint0_linear)" stroke-width="28"/>
<path d="M1.61133 199.833V192.851H41.0156V199.833H25V264.677H17.6758V199.833H1.61133ZM63.709 192.851H78.0156C85.9909 192.851 91.3945 193.176 94.2266 193.827C98.4909 194.804 101.958 196.904 104.627 200.126C107.296 203.316 108.631 207.255 108.631 211.943C108.631 215.849 107.703 219.283 105.848 222.245C104.025 225.208 101.404 227.454 97.9863 228.984C94.5684 230.481 89.8483 231.246 83.8262 231.279L109.656 264.677H100.77L74.9883 231.279H70.8867V264.677H63.709V192.851ZM70.8867 199.882V224.296L83.2402 224.394C88.0254 224.394 91.5573 223.938 93.8359 223.027C96.1471 222.115 97.9375 220.667 99.207 218.681C100.509 216.663 101.16 214.417 101.16 211.943C101.16 209.534 100.509 207.353 99.207 205.4C97.9049 203.414 96.196 201.998 94.0801 201.152C91.9642 200.305 88.4486 199.882 83.5332 199.882H70.8867ZM135.035 192.851H142.213V264.677H135.035V192.851ZM200.062 192.851L233.559 264.677H225.844L214.564 241.044H183.607L172.377 264.677H164.369L198.305 192.851H200.062ZM199.184 208.085L186.83 234.111H211.391L199.184 208.085ZM256.789 264.677V192.851H258.352L306.105 247.831V192.851H313.186V264.677H311.574L264.211 210.38V264.677H256.789ZM412.051 204.911L406.484 210.185C402.48 206.246 398.086 203.268 393.301 201.249C388.548 199.199 383.91 198.173 379.385 198.173C373.753 198.173 368.382 199.557 363.271 202.324C358.193 205.09 354.255 208.85 351.455 213.603C348.656 218.323 347.256 223.32 347.256 228.593C347.256 233.997 348.704 239.14 351.602 244.023C354.499 248.873 358.503 252.698 363.613 255.497C368.724 258.264 374.323 259.648 380.41 259.648C387.799 259.648 394.049 257.564 399.16 253.398C404.271 249.231 407.298 243.827 408.242 237.187H385.342V230.253H416.299C416.234 241.353 412.93 250.175 406.387 256.718C399.876 263.228 391.152 266.484 380.215 266.484C366.934 266.484 356.419 261.959 348.672 252.909C342.715 245.943 339.736 237.887 339.736 228.74C339.736 221.936 341.445 215.605 344.863 209.745C348.281 203.886 352.969 199.312 358.926 196.025C364.883 192.704 371.621 191.044 379.141 191.044C385.228 191.044 390.957 192.151 396.328 194.365C401.699 196.546 406.94 200.061 412.051 204.911ZM441.971 192.851H449.197V257.743H476.785V264.677H441.971V192.851ZM500.211 192.851H541.373V199.931H507.389V222.392H541.08V229.423H507.389V257.597H541.08V264.677H500.211V192.851Z" fill="white"/>
<path d="M317 24L468 286" stroke="#3D4F8E" stroke-width="28"/>
<path d="M1.51758 278.465C1.51758 277.025 2.13737 275.849 3.37695 274.937C4.61654 274.026 6.04753 273.57 7.66992 273.57C8.91862 273.57 10.1628 273.857 11.4023 274.431C11.8125 274.614 12.2773 274.905 12.7969 275.306L11.8398 277.371C11.4297 277.052 11.0013 276.774 10.5547 276.537C9.50651 275.981 8.54492 275.698 7.66992 275.689C6.72201 275.689 5.87891 275.935 5.14062 276.428C4.40234 276.911 4.0332 277.59 4.0332 278.465C4.0332 278.82 4.10156 279.148 4.23828 279.449C4.38411 279.75 4.63021 280.032 4.97656 280.297L5.76953 280.912C5.95182 281.049 6.29818 281.249 6.80859 281.513C7.32812 281.778 7.61523 281.928 7.66992 281.965L8.96875 282.676C9.59766 283.022 10.026 283.273 10.2539 283.428L11.2793 284.111C11.7441 284.421 12.0723 284.704 12.2637 284.959C12.4551 285.205 12.6693 285.51 12.9062 285.875C13.1523 286.239 13.321 286.636 13.4121 287.064C13.5033 287.493 13.5488 287.967 13.5488 288.486C13.5488 290.054 12.8971 291.366 11.5938 292.424C10.2904 293.481 8.79557 294.01 7.10938 294.01C5.70573 294.01 4.35221 293.618 3.04883 292.834C2.47461 292.497 1.96419 292.096 1.51758 291.631L2.48828 289.525C3.00781 289.99 3.52279 290.382 4.0332 290.701C5.22721 291.485 6.2526 291.877 7.10938 291.877C8.19401 291.877 9.11914 291.562 9.88477 290.933C10.6504 290.295 11.0332 289.48 11.0332 288.486C11.0332 287.611 10.7051 286.827 10.0488 286.135C9.40169 285.442 8.60872 284.859 7.66992 284.385L4.86719 282.922C3.9375 282.42 3.14453 281.796 2.48828 281.049C1.84115 280.292 1.51758 279.431 1.51758 278.465ZM16.584 281.746V279.586H18.9629V275.525H21.3418V279.586H24.8145V281.746H21.3418V289.471C21.3418 290.163 21.4466 290.665 21.6562 290.974C21.875 291.275 22.349 291.426 23.0781 291.426H24.5273V293.586H22.0117C21.1003 293.586 20.362 293.344 19.7969 292.861C19.2409 292.378 18.9629 291.722 18.9629 290.892V281.746H16.584ZM28.5195 289.306V279.586H30.8438V289.306C30.8438 290.09 31.1855 290.696 31.8691 291.125C32.5618 291.553 33.3685 291.767 34.2891 291.767C35.2188 291.767 36.0254 291.553 36.709 291.125C37.3926 290.696 37.7344 290.09 37.7344 289.306V279.586H40.0859V289.306C40.0859 290.765 39.4889 291.913 38.2949 292.752C37.11 293.59 35.7702 294.01 34.2754 294.01C32.7897 294.01 31.459 293.595 30.2832 292.765C29.1074 291.936 28.5195 290.783 28.5195 289.306ZM43.3262 286.107C43.3262 284.877 43.5312 283.756 43.9414 282.744C44.3516 281.723 45.0215 280.871 45.9512 280.187C46.89 279.504 48.002 279.162 49.2871 279.162C50.627 279.162 51.944 279.527 53.2383 280.256V272.586H55.6172V293.586H53.9355L53.5938 292.547C52.3451 293.513 50.9915 294 49.5332 294.01C47.8014 294.01 46.334 293.235 45.1309 291.685C43.9277 290.136 43.3262 288.277 43.3262 286.107ZM45.7051 285.888C45.7051 287.511 46.097 288.91 46.8809 290.086C47.6647 291.262 48.6719 291.849 49.9023 291.849C51.0781 291.849 52.1901 291.494 53.2383 290.783V282.252C52.0443 281.541 50.791 281.185 49.4785 281.185C48.3392 281.185 47.4232 281.6 46.7305 282.43C46.0469 283.259 45.7051 284.412 45.7051 285.888ZM59.8281 293.586V279.586H62.207V293.586H59.8281ZM59.8281 276.14V273.98H62.207V276.14H59.8281ZM68.0039 291.863C66.6276 290.432 65.9395 288.673 65.9395 286.586C65.9395 284.499 66.6276 282.739 68.0039 281.308C69.3893 279.877 71.1621 279.162 73.3223 279.162C75.4733 279.162 77.2461 279.882 78.6406 281.322C80.0443 282.762 80.7461 284.517 80.7461 286.586C80.7461 288.655 80.0443 290.409 78.6406 291.849C77.2461 293.29 75.4733 294.01 73.3223 294.01C71.153 294.01 69.3802 293.294 68.0039 291.863ZM69.5898 282.826C68.6602 283.838 68.1953 285.091 68.1953 286.586C68.1953 288.081 68.6602 289.338 69.5898 290.359C70.5286 291.371 71.7728 291.877 73.3223 291.877C74.8535 291.877 76.0885 291.371 77.0273 290.359C77.9753 289.338 78.4492 288.081 78.4492 286.586C78.4492 285.091 77.9753 283.838 77.0273 282.826C76.0885 281.805 74.8535 281.295 73.3223 281.295C71.7728 281.295 70.5286 281.805 69.5898 282.826Z" fill="white"/>
<path d="M181.182 249.023L198.192 219.561L215.202 249.023H181.182Z" stroke="white" stroke-width="32"/>
<defs>
<linearGradient id="paint0_linear" x1="367.5" y1="164.5" x2="148.5" y2="289" gradientUnits="userSpaceOnUse">
<stop stop-color="#3D4F8E"/>
<stop offset="1" stop-color="#3D4F8E" stop-opacity="0"/>
</linearGradient>
</defs>
</svg>
